<svg width="165" height="50" fill="none" xmlns="http://www.w3.org/2000/svg" src="../images/access_logo_light.svg"><path d="M21.292 15.556h-7.816C17.168 6.435 26.111 0 36.556 0c13.747 0 24.89 11.143 24.89 24.89 0 13.746-11.143 24.89-24.89 24.89-10.445 0-19.388-6.436-23.08-15.557h7.816c3.145 5.132 8.805 8.556 15.265 8.556 9.88 0 17.889-8.009 17.889-17.89C54.446 15.01 46.436 7 36.556 7c-6.46 0-12.12 3.424-15.264 8.556zm-11.958 14l-3.112-3.11H45.89c1.386 0 2.08 1.674 1.1 2.655l-6.222 6.222-2.2-2.2 3.567-3.567H9.334zM32.346 16.66l2.2-2.2 6.222 6.223c.98.98.286 2.655-1.1 2.655H3.11L0 20.226h35.913l-3.567-3.567zM84.109 15.383c1.699 0 2.411-.97 2.578-2.123h2.063c-.243 2.214-1.654 3.943-4.702 3.943-2.851 0-4.884-2.078-4.884-5.309 0-3.185 2.063-5.293 4.884-5.293 3.003 0 4.474 1.698 4.702 3.959h-2.063c-.182-1.153-.925-2.14-2.593-2.14-1.593 0-2.821 1.335-2.806 3.49 0 2.183 1.213 3.473 2.82 3.473zm5.612 1.729V6.343h2.078v10.769H89.72zm6.917-7.507c2.305 0 3.822 1.531 3.822 3.76 0 2.23-1.517 3.823-3.822 3.823-2.276 0-3.808-1.517-3.808-3.746 0-2.245 1.532-3.837 3.808-3.837zm0 1.713c-1.032 0-1.715.834-1.715 2.093 0 1.23.683 2.063 1.715 2.063 1.061 0 1.713-.834 1.713-2.063 0-1.26-.652-2.093-1.713-2.093zm9.494-1.638h2.078v7.432h-2.002l-.061-1.092c-.425.698-1.153 1.168-2.184 1.168-1.699 0-2.563-1.198-2.563-2.73V9.68h2.092v4.292c0 .865.441 1.41 1.275 1.41.773 0 1.365-.621 1.365-1.546V9.68zm8.631-3.337h2.077v10.769h-2.017l-.046-1.077c-.439.668-1.197 1.153-2.305 1.153-1.881 0-3.246-1.365-3.246-3.7 0-2.276 1.29-3.883 3.353-3.883 1.092 0 1.774.439 2.184 1.09V6.344zm-1.775 9.1c1.152 0 1.775-.97 1.775-1.804v-.47c0-.895-.653-1.82-1.76-1.82-.986 0-1.668.818-1.668 2.078 0 1.228.652 2.017 1.653 2.017zm5.824-6.37c0-1.714 1.213-2.927 3.124-2.927.413.003.825.05 1.229.137l-.076 1.743c-.182-.075-.516-.136-.834-.136-.925 0-1.365.5-1.365 1.259v.531h2.154v1.653h-2.155v5.779h-2.076v-5.78h-1.063V9.68h1.062v-.607zm5.369-2.73h2.078v10.769h-2.078V6.343zm6.553 3.262c2.229 0 3.352 1.197 3.352 3.108v4.399h-1.926l-.046-1.016c-.288.47-.986 1.092-2.427 1.092-1.608 0-2.472-.804-2.472-2.048 0-1.804 1.851-2.336 3.867-2.336h.987v-.257c0-.835-.471-1.365-1.396-1.365-.788 0-1.304.379-1.38 1.03h-1.881c.137-1.652 1.426-2.608 3.321-2.608h.001zm-.41 6.081c1.092 0 1.745-.683 1.745-1.274v-.47h-1.078c-1.152 0-1.759.303-1.759.97 0 .47.364.774 1.092.774zm9.055-6.082c.167 0 .379.015.47.061l-.015 2.033c-.121-.046-.228-.077-.515-.077-.941 0-1.699.591-1.821 1.654v3.837h-2.078V9.68h2.002l.046 1.213c.349-.758.94-1.29 1.911-1.29zm7.887 3.853v.394h-5.232c.151 1.137.819 1.714 1.789 1.714 1.002 0 1.366-.516 1.487-.91h1.926c-.243 1.289-1.274 2.532-3.519 2.532-2.26 0-3.685-1.562-3.685-3.776 0-2.245 1.562-3.807 3.715-3.807 2.261 0 3.519 1.578 3.519 3.853zm-3.503-2.305c-.835 0-1.501.47-1.699 1.5h3.261c-.136-1.06-.713-1.5-1.562-1.5zM91.91 42l-1.41-4.287h-7.972L81.118 42h-3.972l7.05-19.742h4.634L95.88 42h-3.97zm-8.318-7.424h5.842l-2.906-8.806-2.936 8.806zm19.189 7.569c-4.232 0-6.936-2.964-6.936-7.166 0-4.26 2.907-7.223 6.992-7.223 4.203 0 6.217 2.532 6.563 5.669h-3.799c-.23-1.353-1.007-2.417-2.648-2.417-1.841 0-3.136 1.38-3.136 3.97 0 2.533 1.236 3.915 3.108 3.915 1.726 0 2.446-1.036 2.675-2.36h3.8c-.374 3.08-2.418 5.612-6.619 5.612zm14.496 0c-4.23 0-6.935-2.964-6.935-7.166 0-4.26 2.906-7.223 6.994-7.223 4.201 0 6.216 2.532 6.561 5.669h-3.799c-.231-1.353-1.007-2.417-2.648-2.417-1.841 0-3.136 1.38-3.136 3.97 0 2.533 1.237 3.915 3.107 3.915 1.727 0 2.446-1.036 2.677-2.36h3.799c-.375 3.08-2.417 5.612-6.619 5.612h-.001zm21.289-7.08v.748h-9.928c.288 2.159 1.554 3.252 3.396 3.252 1.899 0 2.59-.978 2.82-1.726h3.656c-.462 2.446-2.418 4.806-6.678 4.806-4.288 0-6.992-2.964-6.992-7.166 0-4.26 2.963-7.223 7.05-7.223 4.288 0 6.676 2.992 6.676 7.31zm-6.647-4.374c-1.583 0-2.849.892-3.224 2.849h6.188c-.259-2.014-1.353-2.85-2.964-2.85zm19.85 7.31c.029 2.619-2.36 4.144-6.13 4.144-3.971 0-5.986-1.612-6.015-4.547l3.367.029c.087 1.15.864 1.784 2.59 1.784 1.67 0 2.389-.49 2.36-1.295 0-2.648-8.029-.49-8.029-6.188 0-2.59 2.302-4.172 6.015-4.172 3.597 0 5.612 1.669 5.64 4.46h-3.424c-.087-1.151-.864-1.727-2.245-1.727-1.496 0-2.158.518-2.158 1.324 0 2.59 8.029.317 8.029 6.188zm13.23 0c.03 2.619-2.359 4.144-6.129 4.144-3.971 0-5.986-1.612-6.015-4.547l3.367.029c.086 1.15.864 1.784 2.591 1.784 1.669 0 2.387-.49 2.359-1.295 0-2.648-8.029-.49-8.029-6.188 0-2.59 2.302-4.172 6.015-4.172 3.597 0 5.612 1.669 5.641 4.46h-3.425c-.086-1.151-.863-1.727-2.245-1.727-1.496 0-2.158.518-2.158 1.324 0 2.59 8.029.317 8.029 6.188h-.001z" fill="#fff"></path></svg>