<svg width="64" height="64" viewBox="0 0 64 64" fill="none" xmlns="http://www.w3.org/2000/svg">
<path d="M31.995 64C14.3565 64 0 49.6559 0 32.0101C0 14.3643 14.3565 0 31.995 0C49.6335 0 64 14.3542 64 32C64 49.6458 49.6435 63.9899 31.995 63.9899V64ZM31.995 1.45958C15.1619 1.45958 1.4598 15.1595 1.4598 32C1.4598 48.8405 15.1619 62.5304 31.995 62.5304C48.8281 62.5304 62.5402 48.8304 62.5402 32C62.5402 15.1695 48.8381 1.45958 31.995 1.45958Z" fill="url(#paint0_linear_6586_2768)"/>
<path d="M31.9945 58.0511C46.3843 58.0511 58.0496 46.3877 58.0496 32.0002C58.0496 17.6126 46.3843 5.94922 31.9945 5.94922C17.6047 5.94922 5.93945 17.6126 5.93945 32.0002C5.93945 46.3877 17.6047 58.0511 31.9945 58.0511Z" fill="url(#paint1_linear_6586_2768)"/>
<path d="M30.8609 38.0943L32.6821 39.9154L39.4325 33.165L32.6821 26.421L30.8609 28.2422L34.5032 31.878H15.2366V34.452H34.5032L30.8609 38.0943Z" fill="white"/>
<path d="M44.4647 20.8676L43.5831 20.7453C39.8556 20.1946 36.3956 18.486 33.6924 15.8611L32.9266 14.9988H30.9961L30.2496 15.8611C27.5541 18.486 24.1002 20.195 20.3782 20.7453L19.4966 20.8676L18.3898 22.1546V29.3748H20.9638V23.2614C25.0993 22.595 28.9347 20.6875 31.9613 17.7916C34.9996 20.6927 38.8489 22.6005 42.9975 23.2614V31.2409C42.9975 41.7687 33.2484 47.2192 31.9613 47.8756C30.9768 47.393 24.6125 43.8086 22.032 37.0968H19.3035C22.1414 45.7392 30.5135 50.0249 30.9382 50.2373L31.3951 50.4689H32.5469L33.0038 50.2373C33.5186 49.9863 45.5715 43.8022 45.5715 31.2409V22.1417L44.4647 20.8676Z" fill="white"/>
<defs>
<linearGradient id="paint0_linear_6586_2768" x1="31.995" y1="64" x2="31.995" y2="0" gradientUnits="userSpaceOnUse">
<stop stop-color="#FBAC42"/>
<stop offset="1" stop-color="#F26539"/>
</linearGradient>
<linearGradient id="paint1_linear_6586_2768" x1="31.9945" y1="58.0511" x2="31.9945" y2="5.94922" gradientUnits="userSpaceOnUse">
<stop stop-color="#FBAC42"/>
<stop offset="1" stop-color="#F26539"/>
</linearGradient>
</defs>
</svg>
