<?xml version="1.0" encoding="UTF-8" standalone="no"?>
<!-- Generator: Adobe Illustrator 27.3.1, SVG Export Plug-In . SVG Version: 6.00 Build 0)  -->

<svg
   version="1.1"
   id="Layer_3"
   x="0px"
   y="0px"
   viewBox="0 0 196.3 226.6"
   style="enable-background:new 0 0 196.3 226.6;"
   xml:space="preserve"
   sodipodi:docname="Dark Avatar Filled.svg"
   inkscape:version="1.3.2 (091e20e, 2023-11-25, custom)"
   xmlns:inkscape="http://www.inkscape.org/namespaces/inkscape"
   xmlns:sodipodi="http://sodipodi.sourceforge.net/DTD/sodipodi-0.dtd"
   xmlns="http://www.w3.org/2000/svg"
   xmlns:svg="http://www.w3.org/2000/svg"><defs
   id="defs1" /><sodipodi:namedview
   id="namedview1"
   pagecolor="#ffffff"
   bordercolor="#000000"
   borderopacity="0.25"
   inkscape:showpageshadow="2"
   inkscape:pageopacity="0.0"
   inkscape:pagecheckerboard="true"
   inkscape:deskcolor="#d1d1d1"
   inkscape:zoom="1.2684859"
   inkscape:cx="43.752951"
   inkscape:cy="-132.04719"
   inkscape:window-width="2560"
   inkscape:window-height="1369"
   inkscape:window-x="-8"
   inkscape:window-y="-8"
   inkscape:window-maximized="1"
   inkscape:current-layer="Layer_3" />
<style
   type="text/css"
   id="style1">
	.st0{fill:none;stroke:#FFFFFF;stroke-width:5;stroke-miterlimit:10;}
	.st1{fill:#FFFFFF;}
	.st2{fill:#FFFFFF;stroke:#FFFFFF;stroke-miterlimit:10;}
	.st3{fill:none;stroke:#FFFFFF;stroke-width:6;stroke-miterlimit:10;}
</style>

<path
   id="Shoulders"
   class="st0"
   d="M179,191.1c2.9,1.5,5.5,3.1,9.7,9c2.6,3.6,4.5,10.8,5.1,18.3c0.3,3.1-2.1,5.7-5.2,5.7L7.7,223.8  c-3.1,0-5.5-2.7-5.2-5.8c0.8-7.5,3-14.7,5.6-18.3c4.2-5.9,6.9-7.5,9.7-9"
   style="fill:#000000;fill-opacity:1;stroke:#ffffff;stroke-opacity:1" />
<path
   id="Left2"
   class="st0"
   d="M37.3,171.4c-13.7,4.6-19.1,10.7-19.6,16.3c-1,11.1,27.3,25.2,80.9,25.3h0.8  c53.6-0.1,81.1-14.2,80.1-25.3c-0.5-5.6-5.9-11.6-19.6-16.3"
   style="enable-background:new 0 0 196.3 226.6;fill:#000000;fill-opacity:1" />



<path
   id="Left_Neck_Ring"
   class="st0"
   d="M50.1,158.9c-9.8,4.1-13,7.2-13.9,11.6c-2.8,13.5,26.3,24.9,62,24.8l0,0  c35.7,0.2,64.9-11.2,62-24.8c-0.9-4.4-4.1-7.5-13.9-11.6"
   style="enable-background:new 0 0 196.3 226.6;fill:#000000;fill-opacity:1" /><circle
   id="Outer_Circle"
   class="st3"
   cx="96.6"
   cy="88.5"
   r="85.5"
   style="enable-background:new 0 0 196.3 226.6;fill:#000000;fill-opacity:1" /><circle
   id="Inner_Circle"
   class="st3"
   cx="96.6"
   cy="88.5"
   r="57"
   style="enable-background:new 0 0 196.3 226.6" /><path
   id="Gamepad"
   class="st2"
   d="M98.1,82.5c-2.2,0-3.9,0-7.1,0.1c-3.3,0.1-6.3,4.2-8.1,8.6c-2.6,6.5-2.9,12.8-1.1,13.9  c1.2,0.7,2.4-0.1,4.3-2.2c1-1.1,3.1-5,5.6-5c3.4,0,4.3,0,6.4,0l0,0c2.1,0,3,0,6.4,0c2.4,0,4.6,3.9,5.6,5c2,2.1,3.2,3,4.3,2.2  c1.8-1.1,1.5-7.4-1.1-13.9c-1.8-4.4-4.7-8.5-8.1-8.6C102,82.5,100.3,82.5,98.1,82.5L98.1,82.5L98.1,82.5z"
   style="enable-background:new 0 0 196.3 226.6" /><path
   id="Sheen"
   class="st1"
   d="M68.2,43.7c-6.5,4.6-6.5,9.1-5,10.9c2.1,2.5,8.2,1.1,12.6-2.5c3.8-3,6.8-7.8,4.2-10.5  C78.7,40.2,73.6,39.8,68.2,43.7L68.2,43.7z"
   style="enable-background:new 0 0 196.3 226.6" />
</svg>
