<?xml version="1.0" encoding="UTF-8"?>
<svg id="Layer_2" data-name="Layer 2" xmlns="http://www.w3.org/2000/svg" viewBox="0 0 1624.72 226.6">
  <defs>
    <style>
      .cls-1, .cls-2 {
        fill: #fff;
      }

      .cls-3 {
        stroke-width: 5px;
      }

      .cls-3, .cls-4 {
        fill: none;
      }

      .cls-3, .cls-4, .cls-2 {
        stroke: #fff;
        stroke-miterlimit: 10;
      }

      .cls-4 {
        stroke-width: 6px;
      }
    </style>
  </defs>
  <path id="Left2" class="cls-3" d="m37.32,171.42c-13.66,4.63-19.13,10.69-19.6,16.28-.95,11.15,27.3,25.19,80.88,25.31h.81c53.58-.12,81.06-14.16,80.11-25.31-.48-5.58-5.94-11.64-19.6-16.28"/>
  <path id="Shoulders" class="cls-3" d="m178.96,191.11c2.85,1.49,5.48,3.07,9.71,8.96,2.58,3.59,4.46,10.83,5.12,18.33.27,3.07-2.13,5.71-5.21,5.71l-180.87-.29c-3.09,0-5.52-2.68-5.19-5.75.81-7.49,3.05-14.71,5.62-18.3,4.23-5.88,6.86-7.46,9.71-8.96"/>
  <path id="Sheen" class="cls-1" d="m68.19,43.66c-6.49,4.63-6.51,9.12-4.97,10.94,2.12,2.5,8.15,1.07,12.56-2.45,3.83-3.05,6.82-7.75,4.23-10.51-1.34-1.43-6.37-1.86-11.83,2.03Z"/>
  <path id="Gamepad" class="cls-2" d="m98.14,82.5c-2.15,0-3.9.02-7.13.07-3.35.06-6.28,4.22-8.06,8.6-2.63,6.46-2.9,12.81-1.11,13.9,1.18.72,2.36-.12,4.34-2.25,1.04-1.11,3.14-5.03,5.59-5.01,3.36.03,4.26.03,6.37.01h-.02c2.12.02,3.01.02,6.37,0,2.45-.02,4.55,3.9,5.59,5.01,1.99,2.13,3.16,2.97,4.34,2.25,1.78-1.09,1.51-7.44-1.11-13.9-1.78-4.37-4.71-8.54-8.06-8.6-3.23-.06-4.98-.08-7.13-.07h.02Z"/>
  <circle id="Inner_Circle" data-name="Inner Circle" class="cls-4" cx="96.6" cy="88.5" r="57.03"/>
  <circle id="Outer_Circle" data-name="Outer Circle" class="cls-4" cx="96.6" cy="88.5" r="85.5"/>
  <path id="Left_Neck_Ring" data-name="Left Neck Ring" class="cls-3" d="m50.09,158.9c-9.8,4.1-12.97,7.17-13.9,11.58-2.85,13.54,26.32,24.95,61.97,24.76h.04c35.65.19,64.87-11.21,62.02-24.76-.93-4.42-4.1-7.49-13.9-11.58"/>
  <g>
    <path class="cls-1" d="m268.15,160.72c-4.16,0-8.01-1.04-11.54-3.12-3.54-2.08-6.34-4.89-8.42-8.42-2.08-3.53-3.12-7.38-3.12-11.54v-10.45h24.18v9.2h63.65v-19.66h-64.74c-4.16,0-8.01-1.04-11.54-3.12-3.54-2.08-6.34-4.86-8.42-8.35-2.08-3.48-3.12-7.36-3.12-11.62v-22.15c0-4.26,1.04-8.14,3.12-11.62,2.08-3.48,4.89-6.26,8.42-8.35,3.53-2.08,7.38-3.12,11.54-3.12h66.14c4.16,0,7.98,1.04,11.47,3.12,3.48,2.08,6.29,4.86,8.42,8.35,2.13,3.49,3.2,7.36,3.2,11.62v10.45h-24.49v-9.2h-63.65v19.66h65.05c4.16,0,7.98,1.04,11.47,3.12,3.48,2.08,6.29,4.86,8.42,8.35,2.13,3.49,3.2,7.36,3.2,11.62v22.15c0,4.16-1.07,8.01-3.2,11.54-2.13,3.54-4.94,6.34-8.42,8.42-3.49,2.08-7.31,3.12-11.47,3.12h-66.14Z"/>
    <path class="cls-1" d="m374.23,196.6v-126.36h69.11c4.16,0,7.96,1.04,11.39,3.12,3.43,2.08,6.16,4.84,8.19,8.27,2.03,3.43,3.04,7.18,3.04,11.23v45.24c0,4.06-1.01,7.8-3.04,11.23-2.03,3.43-4.76,6.19-8.19,8.27-3.43,2.08-7.23,3.12-11.39,3.12h-45.24v35.88h-23.87Zm67.86-59.75v-42.74h-43.99v42.74h43.99Z"/>
    <path class="cls-1" d="m500.12,160.72c-4.16,0-7.96-1.04-11.39-3.12-3.43-2.08-6.16-4.84-8.19-8.27-2.03-3.43-3.04-7.18-3.04-11.23v-34.63h67.86v-9.36h-67.86v-23.87h69.11c4.16,0,7.96,1.04,11.39,3.12,3.43,2.08,6.16,4.84,8.19,8.27,2.03,3.43,3.04,7.18,3.04,11.23v67.86h-69.11Zm45.24-23.87v-12.48h-43.99v12.48h43.99Z"/>
    <path class="cls-1" d="m591.54,157.6c-3.43-2.08-6.19-4.84-8.27-8.27-2.08-3.43-3.12-7.18-3.12-11.23v-45.24c0-4.06,1.04-7.8,3.12-11.23,2.08-3.43,4.84-6.19,8.27-8.27,3.43-2.08,7.18-3.12,11.23-3.12h68.95v23.87h-67.7v42.74h67.86v23.87h-69.11c-4.06,0-7.8-1.04-11.23-3.12Z"/>
    <path class="cls-1" d="m696.06,157.6c-3.43-2.08-6.19-4.84-8.27-8.27-2.08-3.43-3.12-7.18-3.12-11.23v-45.24c0-4.06,1.04-7.8,3.12-11.23,2.08-3.43,4.84-6.19,8.27-8.27,3.43-2.08,7.18-3.12,11.23-3.12h46.49c4.16,0,7.96,1.04,11.39,3.12,3.43,2.08,6.16,4.84,8.19,8.27,2.03,3.43,3.04,7.18,3.04,11.23v34.63h-67.86v9.36h67.86v23.87h-69.11c-4.06,0-7.8-1.04-11.23-3.12Zm12.48-51.01h43.99v-12.48h-43.99v12.48Z"/>
    <path class="cls-1" d="m816.49,160.72c-4.16,0-8.01-1.04-11.54-3.12-3.54-2.08-6.34-4.89-8.42-8.42-2.08-3.53-3.12-7.38-3.12-11.54v-66.14c0-4.26,1.04-8.14,3.12-11.62,2.08-3.48,4.89-6.26,8.42-8.35,3.53-2.08,7.38-3.12,11.54-3.12h65.99c4.26,0,8.14,1.04,11.62,3.12,3.48,2.08,6.29,4.86,8.42,8.35,2.13,3.49,3.2,7.36,3.2,11.62v10.61h-24.49v-9.36h-63.65v63.65h63.65v-16.85h-24.34v-24.34h48.83v42.43c0,4.16-1.07,8.01-3.2,11.54-2.13,3.54-4.94,6.34-8.42,8.42-3.49,2.08-7.36,3.12-11.62,3.12h-65.99Z"/>
    <path class="cls-1" d="m944.87,160.72c-4.16,0-7.96-1.04-11.39-3.12-3.43-2.08-6.16-4.84-8.19-8.27-2.03-3.43-3.04-7.18-3.04-11.23v-34.63h67.86v-9.36h-67.86v-23.87h69.11c4.16,0,7.96,1.04,11.39,3.12,3.43,2.08,6.16,4.84,8.19,8.27,2.03,3.43,3.04,7.18,3.04,11.23v67.86h-69.11Zm45.24-23.87v-12.48h-43.99v12.48h43.99Z"/>
    <path class="cls-1" d="m1026.3,160.72v-90.48h108.89c4.16,0,7.96,1.04,11.39,3.12,3.43,2.08,6.16,4.84,8.19,8.27,2.03,3.43,3.04,7.18,3.04,11.23v67.86h-23.71v-66.61h-29.95v66.61h-24.02v-66.61h-29.95v66.61h-23.87Z"/>
    <path class="cls-1" d="m1183.55,157.6c-3.43-2.08-6.19-4.84-8.27-8.27-2.08-3.43-3.12-7.18-3.12-11.23v-45.24c0-4.06,1.04-7.8,3.12-11.23,2.08-3.43,4.84-6.19,8.27-8.27,3.43-2.08,7.18-3.12,11.23-3.12h46.49c4.16,0,7.96,1.04,11.39,3.12,3.43,2.08,6.16,4.84,8.19,8.27,2.03,3.43,3.04,7.18,3.04,11.23v34.63h-67.86v9.36h67.86v23.87h-69.11c-4.06,0-7.8-1.04-11.23-3.12Zm12.48-51.01h43.99v-12.48h-43.99v12.48Z"/>
    <path class="cls-1" d="m1281.2,160.72V48.4h89.08c4.26,0,8.14,1.04,11.62,3.12,3.48,2.08,6.29,4.86,8.42,8.35,2.13,3.49,3.2,7.36,3.2,11.62v66.14c0,4.16-1.07,8.01-3.2,11.54-2.13,3.54-4.94,6.34-8.42,8.42-3.49,2.08-7.36,3.12-11.62,3.12h-89.08Zm87.83-24.34v-63.65h-63.8v63.65h63.8Z"/>
    <path class="cls-1" d="m1421.6,157.6c-3.43-2.08-6.19-4.84-8.27-8.27-2.08-3.43-3.12-7.18-3.12-11.23v-45.24c0-4.06,1.04-7.8,3.12-11.23,2.08-3.43,4.84-6.19,8.27-8.27,3.43-2.08,7.18-3.12,11.23-3.12h46.49c4.16,0,7.96,1.04,11.39,3.12,3.43,2.08,6.16,4.84,8.19,8.27,2.03,3.43,3.04,7.18,3.04,11.23v34.63h-67.86v9.36h67.86v23.87h-69.11c-4.06,0-7.8-1.04-11.23-3.12Zm12.48-51.01h43.99v-12.48h-43.99v12.48Z"/>
    <path class="cls-1" d="m1554.36,160.72l-49.76-90.48h27.46l32.6,60.06,32.6-60.06h27.46l-49.92,90.48h-20.44Z"/>
  </g>
</svg>