<?xml version="1.0" encoding="UTF-8" standalone="no"?>
<!-- Created with Inkscape (http://www.inkscape.org/) -->

<svg
   width="1024"
   height="1024"
   viewBox="0 0 1024 1024"
   version="1.1"
   id="svg1"
   xml:space="preserve"
   inkscape:version="1.4.2 (ebf0e940d0, 2025-05-08)"
   sodipodi:docname="new-favicon.svg"
   inkscape:export-filename="Logo-With-BG.png"
   inkscape:export-xdpi="48"
   inkscape:export-ydpi="48"
   xmlns:inkscape="http://www.inkscape.org/namespaces/inkscape"
   xmlns:sodipodi="http://sodipodi.sourceforge.net/DTD/sodipodi-0.dtd"
   xmlns:xlink="http://www.w3.org/1999/xlink"
   xmlns="http://www.w3.org/2000/svg"
   xmlns:svg="http://www.w3.org/2000/svg"><sodipodi:namedview
     id="namedview1"
     pagecolor="#323232"
     bordercolor="#000000"
     borderopacity="0.75686275"
     inkscape:showpageshadow="2"
     inkscape:pageopacity="0.0"
     inkscape:pagecheckerboard="true"
     inkscape:deskcolor="#494949"
     inkscape:document-units="mm"
     inkscape:zoom="0.70710678"
     inkscape:cx="421.43564"
     inkscape:cy="532.45141"
     inkscape:window-width="2560"
     inkscape:window-height="1362"
     inkscape:window-x="0"
     inkscape:window-y="0"
     inkscape:window-maximized="1"
     inkscape:current-layer="layer1" /><defs
     id="defs1"><linearGradient
       id="linearGradient1"
       inkscape:collect="always"><stop
         style="stop-color:#0f68e4;stop-opacity:1;"
         offset="0"
         id="stop1" /><stop
         style="stop-color:#6a1fbb;stop-opacity:1;"
         offset="0.2845118"
         id="stop3" /><stop
         style="stop-color:#a3159f;stop-opacity:1;"
         offset="0.64478111"
         id="stop4" /><stop
         style="stop-color:#ca3434;stop-opacity:1;"
         offset="1"
         id="stop2" /></linearGradient><rect
       x="586.74982"
       y="442.46707"
       width="682.93829"
       height="259.70892"
       id="rect1" /><linearGradient
       inkscape:collect="always"
       xlink:href="#linearGradient1"
       id="linearGradient3"
       x1="564.86047"
       y1="1246.7563"
       x2="1382.6631"
       y2="630.4978"
       gradientUnits="userSpaceOnUse" /></defs><g
     inkscape:label="Layer 1"
     inkscape:groupmode="layer"
     id="layer1"
     transform="translate(-461.7619,-426.6272)"><path
       id="rect2"
       style="font-variation-settings:'wght' 700;fill:url(#linearGradient3);stroke-width:199.044;stroke-linecap:round"
       d="m 736.11932,426.6272 h 475.28518 c 151.994,0 274.3574,122.36341 274.3574,274.35742 v 475.28518 c 0,151.994 -122.3634,274.3574 -274.3574,274.3574 H 736.11932 c -151.99401,0 -274.35742,-122.3634 -274.35742,-274.3574 V 700.98462 c 0,-151.99401 122.36341,-274.35742 274.35742,-274.35742 z" /><g
       id="g3"
       transform="matrix(6.7112799,0,0,6.7112799,1288.5072,1246.8374)"><g
         id="g4"
         transform="matrix(0.55660533,0,0,0.55660533,6.0846738,-5.7082702)"><path
           id="Shoulders"
           class="st0"
           d="m -8.3984282,5.8800809 c 0,0 -0.440438,-1.6523503 3.759562,4.2476501 2.6,3.6 4.50000004,10.8 5.10000004,18.3 0.3,3.1 -2.10000004,5.7 -5.20000004,5.7 l -180.9000038,-0.3 c -3.1,0 -5.5,-2.7 -5.2,-5.8 0.8,-7.5 3,-14.7 5.6,-18.3000004 4.2,-5.9 5.37968,-6.2998009 5.37968,-6.2998009 6.11537,22.8947863 78.4466,24.0332273 86.968708,23.9682943 14.5143,-0.110589 72.971393,-3.944268 84.4920538,-21.5161431 z"
           style="fill:#ffffff;fill-opacity:1;stroke:none;stroke-opacity:1"
           sodipodi:nodetypes="scccccccss" /><path
           id="Left2"
           class="st0"
           d="m -25.648804,-15.364596 c 0,0 11.309938,7.4923266 11.809938,13.0923266 1,11.1 -26.5,25.2000004 -80.1,25.3000004 h -0.8 c -53.600004,-0.1 -81.900004,-14.2000004 -80.900004,-25.3000004 0.5,-5.6 11.96268,-12.3285956 11.96268,-12.3285956 6.47689,17.9547811 44.73913,24.720717 67.436609,24.571429 23.495099,-0.1545346 63.564615,-5.6894535 70.590777,-25.33516 z"
           style="fill:#ffffff;fill-opacity:1;stroke:none;stroke-opacity:1"
           transform="translate(-6.8270997e-6)"
           sodipodi:nodetypes="sccccsss" /><path
           id="Sheen"
           class="st1"
           d="m -125.13887,-142.42473 c -6.5,4.6 -6.5,9.1 -5,10.9 2.1,2.5 8.2,1.1 12.6,-2.5 3.8,-3 6.8,-7.8 4.2,-10.5 -1.3,-1.4 -6.4,-1.8 -11.8,2.1 z" /><path
           id="Gamepad"
           class="st2"
           d="m -95.238866,-103.62473 c -2.2,0 -3.9,0 -7.100004,0.1 -3.3,0.1 -6.3,4.200001 -8.1,8.600001 -2.6,6.5 -2.9,12.8 -1.1,13.9 1.2,0.7 2.4,-0.1 4.3,-2.2 1,-1.1 3.1,-5 5.6,-5 3.400004,0 4.300004,0 6.400004,0 v 0 c 2.1,0 3,0 6.4,0 2.4,0 4.6,3.9 5.6,5 2,2.1 3.2,3 4.3,2.2 1.8,-1.1 1.5,-7.4 -1.1,-13.9 -1.8,-4.4 -4.7,-8.500001 -8.1,-8.600001 -3.2,-0.1 -4.9,-0.1 -7.1,-0.1 z" /><path
           id="Left_Neck_Ring"
           class="st0"
           d="m -143.23887,-31.072269 c -9.8,4.1 -13,7.2 -13.9,11.6 -2.8,13.4999996 26.3,24.8999996 62.000004,24.7999996 v 0 c 35.7,0.2 64.9,-11.2 62,-24.7999996 -0.9,-4.4 -4.1,-7.5 -13.9,-11.6"
           style="fill:#ffffff;fill-opacity:1;stroke:none;stroke-opacity:1" /><circle
           style="fill:none;fill-opacity:1;stroke:#ffffff;stroke-width:25.084;stroke-linecap:round;stroke-dasharray:none;stroke-opacity:1"
           id="path3"
           cx="-95.222168"
           cy="-95.594307"
           r="70.495728" /></g></g></g><style
     type="text/css"
     id="style1">
	.st0{fill:none;stroke:#FFFFFF;stroke-width:5;stroke-miterlimit:10;}
	.st1{fill:#FFFFFF;}
	.st2{fill:#FFFFFF;stroke:#FFFFFF;stroke-miterlimit:10;}
	.st3{fill:none;stroke:#FFFFFF;stroke-width:6;stroke-miterlimit:10;}
</style></svg>
