<?xml version="1.0" encoding="UTF-8"?>
<svg id="Layer_1" data-name="Layer 1" xmlns="http://www.w3.org/2000/svg" viewBox="0 0 512 512">
  <defs>
    <style>
      .cls-1 {
        fill: none;
      }

      .cls-1, .cls-2 {
        stroke: #fff;
        stroke-miterlimit: 10;
        stroke-width: 22px;
      }

      .cls-3 {
        stroke-width: 0px;
      }

      .cls-3, .cls-2 {
        fill: #fff;
      }
    </style>
  </defs>
  <path id="Fill" class="cls-2" d="m103.956,265.473c-7.505,50.283,37.937,143.686,145.459,143.686,88.804,0,160.794-72.69,160.794-162.358,0-108.968-91.703-147.646-145.459-143.686,0,0,11.08,80.875-28.974,123.677-41.956,44.834-131.82,38.681-131.82,38.681Z"/>
  <path id="Half-Fill" class="cls-3" d="m256.685,200.726c0,67.431-154.208,62.766-154.208,62.766-7.505,50.283,46.685,145.666,154.208,145.666"/>
  <path id="Outline" class="cls-1" d="m103.956,265.473c-7.505,50.283,37.937,143.686,145.459,143.686,88.804,0,160.794-72.69,160.794-162.358,0-108.968-91.703-147.646-145.459-143.686,0,0,11.08,80.875-28.974,123.677-41.956,44.834-131.82,38.681-131.82,38.681Z"/>
</svg>