<?xml version="1.0" encoding="UTF-8"?>
<svg id="Layer_1" data-name="Layer 1" xmlns="http://www.w3.org/2000/svg" viewBox="0 0 512 512">
  <defs>
    <style>
      .cls-1 {
        fill: none;
        stroke: #fff;
        stroke-miterlimit: 10;
        stroke-width: 22px;
      }

      .cls-2 {
        fill: #fff;
        stroke-width: 0px;
      }
    </style>
  </defs>
  <path id="Outline" class="cls-1" d="m61.522,328.545s51.923,122.455,187.191,122.455c111.72,0,202.287-91.448,202.287-204.254,0-137.087-182.994-180.763-182.994-180.763,0,0,18.405,95.114-34.501,170.373-60.803,86.494-171.983,92.188-171.983,92.188Z"/>
  <path id="Outline-2" data-name="Outline" class="cls-2" d="m61.261,328.545s51.923,122.455,187.191,122.455c111.72,0,202.287-91.448,202.287-204.254,0-137.087-182.994-180.763-182.994-180.763,0,0,18.405,95.114-34.501,170.373-60.803,86.494-171.983,92.188-171.983,92.188Z"/>
</svg>